<?xml version="1.0" encoding="UTF-8" standalone="no"?>
<svg
   xmlns:dc="http://purl.org/dc/elements/1.1/"
   xmlns:cc="http://creativecommons.org/ns#"
   xmlns:rdf="http://www.w3.org/1999/02/22-rdf-syntax-ns#"
   xmlns:svg="http://www.w3.org/2000/svg"
   xmlns="http://www.w3.org/2000/svg"
   viewBox="0 0 520 338.75"
   height="338.75"
   width="520"
   xml:space="preserve"
   version="1.1"
   id="svg2"><metadata
     id="metadata8"><rdf:RDF><cc:Work
         rdf:about=""><dc:format>image/svg+xml</dc:format><dc:type
           rdf:resource="http://purl.org/dc/dcmitype/StillImage" /></cc:Work></rdf:RDF></metadata><defs
     id="defs6" /><g
     transform="matrix(1.25,0,0,-1.25,0,338.75)"
     id="g10"><g
       transform="scale(0.1,0.1)"
       id="g12"><path
         id="path14"
         style="fill:#ebeced;fill-opacity:1;fill-rule:evenodd;stroke:none"
         d="m 2600.05,1685.01 c 27.42,50.17 62.88,96.78 105.16,139.67 114.04,115.6 253.84,170.24 415.59,170.24 161.74,0 301.54,-54.64 415.57,-170.24 107.43,-108.93 170.62,-241.88 170.62,-396.29 l 0,-688.136 c -141.83,0 -283.66,0 -425.49,0 l -0.11,0 0,701.896 -0.57,2.92 c -6.03,30.62 -19.96,53.7 -42.15,75.41 -34.63,33.88 -69.28,48.85 -117.87,48.85 -48.59,0 -83.26,-14.97 -117.88,-48.85 -22.2,-21.71 -36.12,-44.79 -42.15,-75.41 l -0.57,-2.92 0,-454.646 c 38.95,-23.188 65.05,-65.699 65.05,-114.305 0,-73.422 -59.52,-132.945 -132.94,-132.945 -73.42,0 -132.95,59.523 -132.95,132.945 0,48.606 26.09,91.106 65.04,114.305 l -0.04,465.076 0.29,2.1 c 9.05,64.47 36.71,117.29 83.11,162.79 27.59,27.05 58.84,49.6 94.53,64.76 37.74,16.05 77.61,22.86 118.51,22.86 55.55,0 107.06,-12.66 154.65,-41.73 21.21,-12.95 40.65,-28.53 58.39,-45.91 46.52,-45.61 74.18,-98.52 83.14,-163.17 l 0.31,-2.07 0,-12.38 -0.12,-10.87 0,-552.913 161.73,0 c 2.54,224.233 5.1,430.793 -0.4,553.703 -5.23,117.48 -49.45,218.76 -133.55,301.15 -89.82,87.96 -198.29,133.1 -324.15,133.1 -125.86,0 -234.34,-45.14 -324.16,-133.1 -77.94,-76.37 -121.62,-168.94 -131.77,-275.6 0.42,-8.91 0.64,-17.86 0.64,-26.91 l 0,-688.136 -0.1,0 c -141.83,0 -283.67,0 -425.5,0 l 0,701.896 -0.56,2.92 c -6.04,30.62 -19.96,53.7 -42.14,75.41 -34.63,33.88 -69.3,48.85 -117.89,48.85 -17.82,0 -33.75,-2.03 -48.49,-6.24 -6.41,45.34 -16.06,89.69 -28.76,132.93 25.14,6.26 50.99,9.07 77.25,9.07 55.55,0 107.06,-12.66 154.66,-41.73 21.21,-12.95 40.65,-28.53 58.38,-45.91 46.52,-45.61 74.19,-98.52 83.17,-163.17 l 0.28,-2.07 0,-12.38 -0.1,-10.87 0,-552.913 158.9,0 0,552.343 c 0,9.05 0.22,18 0.64,26.91 -10.15,106.66 -53.82,199.23 -131.77,275.6 -89.82,87.96 -198.3,133.1 -324.16,133.1 -47.5,0 -92.54,-6.44 -135.03,-19.18 -19.7,40.34 -42.28,79.39 -67.57,117.06 62.96,22.21 130.62,33.04 202.6,33.04 161.75,0 301.55,-54.64 415.58,-170.24 42.3,-42.89 77.75,-89.5 105.15,-139.67 z M 4001.67,987.504 c 38.95,-23.188 65.06,-65.699 65.06,-114.305 0,-73.422 -59.53,-132.945 -132.95,-132.945 -73.41,0 -132.95,59.523 -132.95,132.945 0,48.606 26.11,91.117 65.06,114.305 l 0,440.886 c 0,196.31 -79.55,369.06 -216.39,507.86 -143.86,145.94 -324.44,217.58 -528.7,217.58 -136.22,0 -266.94,-31.97 -383.92,-102.72 -41.34,-25.01 -79.96,-54.34 -115.59,-86.97 -0.36,-0.35 -0.74,-0.68 -1.12,-1.02 l -20.29,-17.74 -19.4,17.49 c -0.86,0.69 -1.43,1.19 -1.73,1.51 -35.62,32.62 -73.98,61.74 -115.31,86.73 -116.98,70.76 -247.72,102.72 -383.92,102.72 -109.39,0 -211.97,-20.56 -305.78,-62.06 -7.83,8.47 -15.83,16.82 -23.97,25.1 -26.25,26.62 -53.52,51.45 -81.72,74.51 124.34,65.41 263.09,98.24 411.47,98.24 181.86,0 353.95,-49.53 503.28,-154.38 l 17.37,-12.2 17.35,12.19 c 149.32,104.9 321.42,154.39 503.28,154.39 240.61,0 456,-86.23 625.38,-258.04 161.93,-164.28 255.49,-371.1 255.49,-603.19 l 0,-440.886" /><path
         id="path16"
         style="fill:#041e34;fill-opacity:1;fill-rule:evenodd;stroke:none"
         d="m 877.133,2276.08 c 52.976,9.15 106.75,13.53 160.717,13.53 240.61,0 456.01,-86.23 625.39,-258.04 161.92,-164.27 255.49,-371.1 255.49,-603.17 l 0,-552.349 0.72,0 0,-135.801 -426.15,0 c 0.14,23.629 0.37,48.168 0.66,73.371 l 0,62.43 0.81,0 c 2.68,192.649 7.17,410.449 0.79,553.709 -5.24,117.46 -49.45,218.74 -133.56,301.13 -89.81,87.97 -198.29,133.11 -324.15,133.11 -125.858,0 -234.315,-45.14 -324.166,-133.11 -75.086,-73.52 -119.258,-163.21 -130.918,-267.72 l -0.2,-1.69 0,-721.23 -425.484,0 -0.105,688.42 0.105,12.06 0,927.81 c -38.969,23.18 -65.0742,65.7 -65.0742,114.32 0,73.42 59.5352,132.95 132.9492,132.95 73.418,0 132.945,-59.53 132.945,-132.95 0,-48.62 -26.121,-91.14 -65.093,-114.32 l 0.054,-928.73 -0.054,-5.01 0,-558.749 158.859,0 0,1739.769 425.48,0 0,-135.8 -0.015,0 0,-203.94 z m 905.817,-1400.029 0,552.349 c 0,196.3 -79.55,369.06 -216.4,507.85 -143.85,145.94 -324.43,217.58 -528.7,217.58 -58.811,0 -117.319,-5.99 -174.428,-18.82 l -9.563,-2.3 c -24.343,-5.85 -48.367,-12.94 -71.964,-21.26 l -40.493,-14.31 0.012,382.88 -158.848,0 0,-693.31 51.383,49.5 c 112.442,108.31 248.547,158.71 403.901,158.71 161.75,0 301.54,-54.63 415.58,-170.25 107.44,-108.92 170.61,-241.87 170.61,-396.27 l 0,-552.349 158.91,0 z m -448.72,111.453 c 38.95,-23.184 65.06,-65.699 65.06,-114.309 0,-73.418 -59.53,-132.945 -132.95,-132.945 -73.42,0 -132.95,59.527 -132.95,132.945 0,48.61 26.11,91.125 65.06,114.309 l 0,454.636 -0.57,2.93 c -6.04,30.62 -19.96,53.7 -42.15,75.4 -34.63,33.88 -69.29,48.86 -117.88,48.86 -48.584,0 -83.248,-14.98 -117.873,-48.86 -22.196,-21.7 -36.118,-44.78 -42.145,-75.4 l -0.574,-2.93 0,-701.89 -135.785,0 -0.051,712.34 0.289,2.09 c 9.039,64.46 36.703,117.28 83.102,162.78 27.593,27.06 58.847,49.61 94.535,64.78 37.73,16.04 77.617,22.85 118.502,22.85 55.55,0 107.06,-12.66 154.66,-41.73 21.21,-12.95 40.66,-28.52 58.38,-45.91 46.52,-45.61 74.19,-98.52 83.16,-163.16 l 0.29,-2.08 0,-12.38 -0.11,-10.87 0,-441.456" /><path
         id="path18"
         style="fill:#ebeced;fill-opacity:1;fill-rule:evenodd;stroke:none"
         d="m 2433.99,224.063 0,166.312 c 0,7.332 -0.29,14.813 -0.91,22.336 -0.57,7.523 -2.11,14.234 -4.6,20.18 -2.39,5.89 -6.28,10.683 -11.6,14.328 -5.27,3.691 -12.84,5.511 -22.62,5.511 -9.35,0 -17.11,-1.726 -23.24,-5.175 -6.09,-3.453 -10.98,-7.957 -14.67,-13.469 -3.64,-5.512 -6.33,-12.031 -7.96,-19.555 -1.63,-7.523 -2.44,-15.191 -2.44,-22.91 l 0,-167.558 -121.02,0 0,166.312 c 0,7.332 -0.34,14.813 -0.96,22.336 -0.58,7.523 -2.11,14.234 -4.55,20.18 -2.45,5.89 -6.33,10.683 -11.65,14.328 -5.27,3.691 -12.84,5.511 -22.62,5.511 -9.35,0 -17.11,-1.726 -23.2,-5.175 -6.13,-3.453 -11.02,-7.957 -14.71,-13.469 -3.65,-5.512 -6.28,-12.031 -7.91,-19.555 -1.63,-7.523 -2.44,-15.191 -2.44,-22.91 l 0,-167.558 -121.07,0 0,317.335 121.07,0 0,-34.222 c 14.23,16.297 29.33,27.414 45.19,33.312 15.92,5.895 34.27,8.867 55.07,8.867 24.01,0 44.62,-5.324 61.73,-15.914 17.11,-10.593 29.76,-25.449 37.91,-44.621 11.03,22.43 25.69,38.102 44,47.067 18.36,8.961 40.17,13.468 65.47,13.468 32.6,0 58.86,-9.683 78.85,-29.046 19.98,-19.364 29.95,-45.532 29.95,-78.555 l 0,-217.691 -121.07,0 z m 387.65,220.761 c -8.15,10.977 -20.37,16.485 -36.67,16.485 -16.34,0 -28.23,-4.36 -35.8,-13.133 -7.53,-8.77 -12.51,-19.266 -14.96,-31.488 0,-1.629 -0.19,-2.875 -0.62,-3.688 l 88.05,31.824 z m 124.13,-94.183 c -2.88,-21.614 -8.96,-40.739 -18.36,-57.461 -9.39,-16.731 -21.28,-30.774 -35.75,-42.18 -14.48,-11.406 -31.01,-20.082 -49.56,-26.027 -18.55,-5.891 -38.39,-8.868 -59.57,-8.868 -24.49,0 -47.12,4.125 -67.87,12.274 -20.8,8.144 -38.92,19.555 -54.45,34.219 -15.48,14.668 -27.6,32.207 -36.37,52.578 -8.77,20.367 -13.14,42.801 -13.14,67.242 0,24.492 4.37,46.973 13.14,67.582 8.77,20.559 20.89,38.195 36.37,52.863 15.53,14.715 33.65,26.121 54.45,34.266 20.75,8.152 43.38,12.226 67.87,12.226 20.37,0 40.02,-2.542 59,-7.621 18.93,-5.129 35.85,-12.847 50.75,-23.246 14.86,-10.402 26.99,-23.773 36.38,-40.07 9.35,-16.293 15.05,-35.465 17.11,-57.465 l -210.36,-76.445 c 2.88,-11.406 7.96,-20.992 15.29,-28.711 7.34,-7.762 18.79,-11.645 34.27,-11.645 13.04,0 23.63,4.7 31.78,14.09 8.14,9.348 12.65,20.18 13.47,32.399 l 115.55,0 z m 308.13,70.312 c 0,6.52 -2.44,12.32 -7.33,17.445 -4.89,5.082 -10.88,9.348 -18.02,12.844 -7.14,3.453 -14.48,5.992 -22,7.625 -7.57,1.629 -14,2.442 -19.27,2.442 -27.75,0 -47.21,-6.614 -58.42,-19.891 -11.17,-13.227 -16.78,-32.879 -16.78,-59 0,-26.074 5.71,-45.625 17.11,-58.664 11.41,-13.082 30.77,-19.602 58.09,-19.602 6.52,0 13.66,1.055 21.38,3.071 7.76,2.058 15,4.98 21.71,8.867 6.71,3.879 12.32,8.672 16.82,14.375 4.46,5.703 6.71,12.414 6.71,20.176 l 0,70.312 z m 0,-196.89 0,14.093 c -25.69,-14.668 -56.02,-22.051 -91.11,-22.051 -24.01,0 -46.44,3.981 -67.24,11.938 -20.8,7.953 -38.92,19.172 -54.4,33.645 -15.48,14.472 -27.75,31.875 -36.72,52.292 -8.96,20.368 -13.41,43.184 -13.41,68.438 0,24.879 4.45,47.594 13.41,68.203 8.97,20.563 21.24,38.199 36.72,52.863 15.48,14.668 33.6,25.981 54.4,33.934 20.8,7.957 43.23,11.937 67.24,11.937 34.27,0 64.6,-6.71 91.11,-20.179 l 0,135.109 121.07,0 0,-440.222 -121.07,0 z m 187.12,0 0,317.335 121.06,0 0,-317.335 -121.06,0 z m 131.41,390.089 c 0,-9.343 -2.11,-17.828 -6.42,-25.355 -4.26,-7.57 -9.78,-13.848 -16.49,-18.977 -6.71,-5.082 -14.28,-9.058 -22.62,-11.886 -8.34,-2.875 -16.82,-4.313 -25.35,-4.313 -8.58,0 -17.16,1.438 -25.69,4.313 -8.58,2.828 -16.2,6.804 -22.91,11.886 -6.76,5.129 -12.13,11.407 -16.25,18.977 -4.07,7.527 -6.09,16.012 -6.09,25.355 0,9.395 2.02,17.828 6.09,25.403 4.12,7.523 9.49,13.851 16.25,18.933 6.71,5.078 14.33,9.055 22.91,11.934 8.53,2.824 17.11,4.266 25.69,4.266 8.53,0 17.01,-1.442 25.35,-4.266 8.34,-2.879 15.91,-6.856 22.62,-11.934 6.71,-5.082 12.23,-11.41 16.49,-18.933 4.31,-7.575 6.42,-16.008 6.42,-25.403 z m 308.18,-193.199 c 0,6.52 -2.44,12.32 -7.33,17.445 -4.89,5.082 -10.93,9.348 -18.02,12.844 -7.14,3.453 -14.48,5.992 -22.05,7.625 -7.53,1.629 -13.94,2.442 -19.26,2.442 -27.71,0 -47.17,-6.614 -58.38,-19.891 -11.22,-13.227 -16.83,-32.879 -16.83,-59 0,-26.074 5.71,-45.625 17.12,-58.664 11.45,-13.082 30.81,-19.602 58.09,-19.602 6.51,0 13.66,1.055 21.42,3.071 7.76,2.058 14.95,4.98 21.71,8.867 6.71,3.879 12.32,8.672 16.82,14.375 4.46,5.703 6.71,12.414 6.71,20.176 l 0,70.312 z m 0,-196.89 0,14.093 c -25.69,-14.668 -56.07,-22.051 -91.11,-22.051 -24.06,0 -46.44,3.981 -67.24,11.938 -20.8,7.953 -38.92,19.172 -54.45,33.645 -15.48,14.472 -27.7,31.875 -36.67,52.292 -8.96,20.368 -13.42,43.184 -13.42,68.438 0,24.879 4.46,47.594 13.42,68.203 8.97,20.563 21.19,38.199 36.67,52.863 15.53,14.668 33.65,25.981 54.45,33.934 20.8,7.957 43.18,11.937 67.24,11.937 34.22,0 64.61,-6.71 91.11,-20.179 l 0,12.222 121.07,0 0,-317.335 -121.07,0" /><path
         id="path20"
         style="fill:#041e34;fill-opacity:1;fill-rule:evenodd;stroke:none"
         d="m 380.844,224.063 0,166.312 c 0,7.332 -0.289,14.813 -0.914,22.336 -0.621,7.523 -2.11,14.234 -4.602,20.18 -2.394,5.89 -6.328,10.683 -11.598,14.328 -5.32,3.691 -12.843,5.511 -22.621,5.511 -17.976,0 -30.484,-6.085 -37.625,-18.308 -7.14,-12.223 -10.687,-26.508 -10.687,-42.801 l 0,-167.558 -135.684,0 0,440.222 135.684,0 0,-157.109 c 14.281,16.297 29.234,27.414 44.957,33.312 15.672,5.895 34.125,8.867 55.309,8.867 32.593,0 58.902,-9.683 78.89,-29.046 19.938,-19.364 29.953,-45.532 29.953,-78.555 l 0,-217.691 -121.062,0 z m 416.449,196.89 c 0,6.52 -2.398,12.32 -7.289,17.445 -4.84,5.082 -10.973,9.395 -18.07,12.844 -7.043,3.453 -14.473,5.992 -22.047,7.625 -7.379,1.582 -13.899,2.442 -19.219,2.442 -27.746,0 -47.258,-6.614 -58.375,-19.891 -11.117,-13.227 -16.871,-32.879 -16.871,-59 0,-26.074 5.801,-45.625 17.207,-58.664 11.453,-13.035 30.769,-19.602 58.039,-19.602 6.566,0 13.758,1.055 21.426,3.071 7.715,2.011 15.047,5.031 21.711,8.867 6.664,3.879 12.367,8.672 16.773,14.375 4.41,5.703 6.715,12.414 6.715,20.176 l 0,70.312 z m 0,-196.89 0,14.093 c -25.645,-14.668 -55.984,-22.051 -91.066,-22.051 -24.063,0 -46.539,3.981 -67.293,11.938 -20.754,7.953 -38.965,19.172 -54.399,33.645 -15.387,14.425 -27.703,31.875 -36.664,52.292 -8.965,20.321 -13.418,43.184 -13.418,68.438 0,24.879 4.406,47.594 13.418,68.203 8.914,20.563 21.184,38.199 36.664,52.863 15.434,14.668 33.645,26.028 54.399,33.934 20.8,7.91 43.23,11.937 67.293,11.937 34.265,0 64.605,-6.71 91.066,-20.179 l 0,12.222 121.062,0 0,-317.335 -121.062,0 z m 381.367,0 0,34.269 c -14.24,-16.293 -29.24,-27.461 -44.91,-33.359 -15.68,-5.942 -34.13,-8.868 -55.36,-8.868 -32.59,0 -58.91,9.735 -78.843,29.047 -19.938,19.364 -29.953,45.578 -29.953,78.602 l 0,217.644 121.066,0 0,-166.312 c 0,-7.332 0.34,-14.762 0.91,-22.285 0.57,-7.574 2.16,-14.281 4.55,-20.18 2.45,-5.941 6.38,-10.734 11.65,-14.379 5.27,-3.64 12.84,-5.512 22.62,-5.512 17.93,0 30.43,6.137 37.57,18.36 7.15,12.219 10.7,26.504 10.7,42.801 l 0,167.507 121.11,0 0,-317.335 -121.11,0 z m 429.82,158.355 c 0,26.121 -5.61,45.773 -16.78,59 -11.16,13.23 -30.63,19.891 -58.42,19.891 -5.28,0 -11.7,-0.813 -19.27,-2.442 -7.47,-1.633 -14.86,-4.172 -22,-7.625 -7.14,-3.398 -13.13,-7.762 -18.02,-12.844 -4.89,-5.125 -7.29,-10.925 -7.29,-17.445 l 0,-70.312 c 0,-7.762 2.26,-14.473 6.71,-20.176 4.46,-5.703 10.12,-10.496 16.78,-14.375 6.71,-3.887 13.99,-6.856 21.71,-8.867 7.72,-2.016 14.86,-3.071 21.38,-3.071 27.32,0 46.73,6.567 58.09,19.602 11.35,13.039 17.11,32.59 17.11,58.664 z m 121.06,0 c 0,-25.254 -4.45,-48.117 -13.42,-68.438 -8.96,-20.417 -21.23,-37.82 -36.71,-52.292 -15.48,-14.473 -33.74,-25.692 -54.69,-33.645 -20.94,-7.957 -43.32,-11.938 -67,-11.938 -35.04,0 -65.37,7.383 -91.02,22.051 l 0,-139.9997 -121.11,0 0,443.2417 121.11,0 0,-12.222 c 26.03,13.469 56.42,20.179 91.02,20.179 23.68,0 46.06,-4.027 67,-11.937 20.95,-7.906 39.26,-19.266 54.69,-33.934 15.53,-14.664 27.75,-32.3 36.71,-52.863 9.01,-20.609 13.42,-43.324 13.42,-68.203 z m 189.17,84.402 0,-242.757 -135.78,0 0,242.757 -33.02,0 0,74.578 33.02,0 0,122.887 135.78,0 0,-122.887 33.03,0 0,-74.578 -33.03,0" /></g></g></svg>